<svg width="16" height="18" viewBox="0 0 16 18" fill="none" xmlns="http://www.w3.org/2000/svg">
<path d="M9.125 1.5C9.125 0.878685 8.6213 0.375 8 0.375C7.3787 0.375 6.875 0.878685 6.875 1.5V9.28395L4.29549 6.70455C3.85616 6.2652 3.14384 6.2652 2.70451 6.70455C2.26517 7.1439 2.26517 7.8561 2.70451 8.29545L7.20455 12.7955C7.41545 13.0065 7.70165 13.125 8 13.125C8.29835 13.125 8.58455 13.0065 8.79545 12.7955L13.2955 8.29545C13.7348 7.8561 13.7348 7.1439 13.2955 6.70455C12.8561 6.2652 12.1439 6.2652 11.7045 6.70455L9.125 9.28395V1.5Z" fill="white"/>
<path d="M0.875 16.5C0.875 15.8787 1.37868 15.375 2 15.375H14C14.6213 15.375 15.125 15.8787 15.125 16.5C15.125 17.1213 14.6213 17.625 14 17.625H2C1.37868 17.625 0.875 17.1213 0.875 16.5Z" fill="white"/>
</svg>
