<svg width="32" height="24" viewBox="0 0 32 24" fill="none" xmlns="http://www.w3.org/2000/svg">
<path d="M32 20.3077C32 21.287 31.6254 22.2261 30.9586 22.9185C30.2918 23.611 29.3874 24 28.4444 24H3.55556C2.61256 24 1.70819 23.611 1.0414 22.9185C0.374602 22.2261 0 21.287 0 20.3077V3.69231C0 2.71305 0.374602 1.77389 1.0414 1.08145C1.70819 0.38901 2.61256 0 3.55556 0H28.4444C29.3874 0 30.2918 0.38901 30.9586 1.08145C31.6254 1.77389 32 2.71305 32 3.69231V20.3077Z" fill="#C60A1D"/>
<path d="M0 6.46154H32V17.5385H0V6.46154Z" fill="#FFD467"/>
</svg>
