<svg width="24" height="25" viewBox="0 0 24 25" fill="none" xmlns="http://www.w3.org/2000/svg">
<g clip-path="url(#clip0_520_4762)">
<path d="M0.359375 3.50391V21.4986C0.359375 23.1972 1.696 24.5338 3.39453 24.5338H21.3892C22.2206 24.5338 23.0149 24.136 23.5214 23.6307C24.0637 23.0885 24.4244 22.4017 24.4244 21.4986V3.50391C24.4244 1.80537 23.0878 0.46875 21.3892 0.46875H3.39453C2.4915 0.46875 1.80469 0.830656 1.26241 1.37178C0.755969 1.87822 0.359375 2.67256 0.359375 3.50391ZM3.61191 5.88809C3.61191 4.73184 4.55194 3.72013 5.70819 3.72013C6.90028 3.72013 7.87616 4.73184 7.87616 5.88809C7.87616 7.08019 6.90028 8.02022 5.70819 8.02022C4.55194 8.02022 3.61191 7.08019 3.61191 5.88809ZM9.429 20.739V9.71875C9.429 9.46553 9.68222 9.24931 9.86259 9.24931H12.9336C13.3672 9.24931 13.3672 9.75575 13.3672 10.0807C14.2344 9.21347 15.3548 8.99609 16.511 8.99609C19.33 8.99609 21.136 10.3327 21.136 13.2962V20.7401C21.136 20.9933 20.9187 21.2096 20.7024 21.2096H17.5227C17.2695 21.2096 17.0892 20.9563 17.0892 20.7401V14.0188C17.0892 12.8984 16.7642 12.2845 15.4993 12.2845C13.9095 12.2845 13.5117 13.332 13.5117 14.7415V20.7401C13.5117 20.9933 13.2585 21.2096 13.0053 21.2096H9.86144C9.68106 21.2096 9.42784 20.9563 9.42784 20.7401L9.429 20.739ZM3.68359 20.739V9.71875C3.68359 9.46553 3.93681 9.24931 4.11719 9.24931H7.26103C7.55009 9.24931 7.73047 9.42969 7.73047 9.71875V20.739C7.73047 20.9922 7.51309 21.2084 7.26103 21.2084H4.11719C3.89981 21.2084 3.68359 20.9552 3.68359 20.739Z" fill="#244189"/>
</g>
<defs>
<clipPath id="clip0_520_4762">
<rect width="24" height="25" fill="white"/>
</clipPath>
</defs>
</svg>
