<svg width="30" height="30" viewBox="0 0 30 30" fill="none" xmlns="http://www.w3.org/2000/svg">
<path fill-rule="evenodd" clip-rule="evenodd" d="M6.88281 13.612C6.88364 9.16014 9.95038 5.32888 14.2076 4.46116C18.4647 3.59342 22.7268 5.93087 24.3873 10.044C26.0475 14.1572 24.6439 18.9006 21.0347 21.3733C17.4253 23.8461 12.6155 23.3595 9.54676 20.2112C7.84063 18.4608 6.88237 16.0869 6.88281 13.612Z" stroke="#244189" stroke-width="2" stroke-linecap="round" stroke-linejoin="round"/>
<path fill-rule="evenodd" clip-rule="evenodd" d="M12.0825 13.6115C12.083 11.7038 13.3975 10.062 15.2218 9.69032C17.0463 9.3186 18.8726 10.3205 19.5841 12.0833C20.2955 13.8458 19.6938 15.8786 18.147 16.9381C16.6001 17.9977 14.5391 17.7891 13.224 16.4398C12.4928 15.6897 12.0822 14.6722 12.0825 13.6115Z" stroke="#244189" stroke-width="2" stroke-linecap="round" stroke-linejoin="round"/>
<path d="M25.0795 12.3267C24.3695 12.3267 23.7939 12.9023 23.7939 13.6123C23.7939 14.3223 24.3695 14.8979 25.0795 14.8979V12.3267ZM27.6799 14.8979C28.3899 14.8979 28.9655 14.3223 28.9655 13.6123C28.9655 12.9023 28.3899 12.3267 27.6799 12.3267V14.8979ZM4.28264 12.3267C3.57264 12.3267 2.99707 12.9023 2.99707 13.6123C2.99707 14.3223 3.57264 14.8979 4.28264 14.8979V12.3267ZM6.88308 14.8979C7.59307 14.8979 8.16864 14.3223 8.16864 13.6123C8.16864 12.9023 7.59307 12.3267 6.88308 12.3267V14.8979ZM14.6957 4.28081C14.6957 4.9908 15.2713 5.56638 15.9813 5.56638C16.6913 5.56638 17.2668 4.9908 17.2668 4.28081H14.6957ZM17.2668 1.61369C17.2668 0.903698 16.6913 0.328125 15.9813 0.328125C15.2713 0.328125 14.6957 0.903698 14.6957 1.61369H17.2668ZM14.6957 25.6109C14.6957 26.3209 15.2713 26.8965 15.9813 26.8965C16.6913 26.8965 17.2668 26.3209 17.2668 25.6109H14.6957ZM17.2668 22.9438C17.2668 22.2338 16.6913 21.6582 15.9813 21.6582C15.2713 21.6582 14.6957 22.2338 14.6957 22.9438H17.2668ZM25.0795 14.8979H27.6799V12.3267H25.0795V14.8979ZM4.28264 14.8979H6.88308V12.3267H4.28264V14.8979ZM17.2668 4.28081V1.61369H14.6957V4.28081H17.2668ZM17.2668 25.6109V22.9438H14.6957V25.6109H17.2668Z" fill="#244189"/>
</svg>
