<svg width="17" height="15" viewBox="0 0 17 15" fill="none" xmlns="http://www.w3.org/2000/svg">
<path d="M8.33812 0.360985C8.49442 -0.120328 9.17545 -0.120328 9.33175 0.360985L10.8289 4.96853C10.8988 5.18378 11.0994 5.32951 11.3257 5.32951H16.1704C16.6764 5.32951 16.8869 5.97711 16.4775 6.27462L12.558 9.12221C12.3749 9.25522 12.2984 9.49104 12.3683 9.70627L13.8653 14.3138C14.0217 14.7951 13.4709 15.1953 13.0614 14.8978L9.14201 12.0503C8.95885 11.9172 8.71102 11.9172 8.52786 12.0503L4.60845 14.8978C4.19903 15.1953 3.64814 14.7951 3.80453 14.3138L5.30162 9.70627C5.37156 9.49104 5.29494 9.25522 5.11184 9.12221L1.19243 6.27462C0.782997 5.97711 0.993416 5.32951 1.49949 5.32951H6.34415C6.57048 5.32951 6.77107 5.18378 6.84097 4.96853L8.33812 0.360985Z" fill="#F6C342"/>
</svg>
